<svg width="22" height="21" viewBox="0 0 22 21" fill="none" xmlns="http://www.w3.org/2000/svg">
<path d="M13.844 1.88601L12.416 2.66701L13.844 3.44801L14.625 4.87601L15.406 3.44801L16.834 2.66701L15.406 1.88601L14.625 0.458008L13.844 1.88601ZM8.412 2.70001C7.10231 2.96575 5.88006 3.55535 4.85685 4.41497C3.83364 5.27458 3.04207 6.37683 2.55443 7.62106C2.06679 8.8653 1.89861 10.2119 2.06525 11.5378C2.23189 12.8638 2.72804 14.1268 3.5084 15.2117C4.28875 16.2966 5.32845 17.1687 6.53255 17.7484C7.73664 18.3281 9.06678 18.5969 10.4015 18.5303C11.7362 18.4637 13.033 18.0638 14.1734 17.3671C15.3138 16.6704 16.2615 15.6992 16.93 14.542C14.5552 14.5235 12.284 13.5672 10.6112 11.8813C8.93852 10.1955 7.99993 7.91688 8 5.54201C8 4.56201 8.131 3.60501 8.412 2.70001ZM0 10.542C0 5.01901 4.477 0.542008 10 0.542008H11.734L10.866 2.04201C10.287 3.04201 10 4.23201 10 5.54201C9.99985 6.57562 10.2286 7.59645 10.6698 8.53116C11.1111 9.46587 11.7538 10.2913 12.5519 10.9481C13.35 11.6049 14.2837 12.0768 15.2858 12.3299C16.288 12.583 17.3337 12.6111 18.348 12.412L20.03 12.085L19.487 13.711C18.162 17.679 14.417 20.542 10 20.542C4.477 20.542 0 16.065 0 10.542ZM18.5 4.95801L19.414 6.62801L21.084 7.54201L19.414 8.45601L18.5 10.126L17.586 8.45601L15.916 7.54201L17.586 6.62801L18.5 4.95801Z" fill="white"/>
</svg>
